<svg xmlns="http://www.w3.org/2000/svg" width="175" height="94" viewBox="0 0 175 94" fill="none"><g clip-path="url(#clip0)"><path d="M90.6084 2.40076V91.5376" stroke="white" stroke-width="0.75" stroke-miterlimit="10"></path><path d="M142.693 7.005L110.676 28.828L111.09 29.4351L143.107 7.61211L142.693 7.005Z" fill="url(#paint0_linear)"></path><path d="M136.367 7.36818L110.699 24.856L111.113 25.4634L136.781 7.9756L136.367 7.36818Z" fill="url(#paint1_linear)"></path><path d="M128.572 8.66195L110.726 20.884L111.14 21.4896L128.987 9.2675L128.572 8.66195Z" fill="url(#paint2_linear)"></path><path d="M118.155 11.8017L110.748 16.9191L111.165 17.523L118.572 12.4056L118.155 11.8017Z" fill="url(#paint3_linear)"></path><path d="M162.979 32.617V32.61L153.996 38.735V38.742L127.287 56.954L127.839 57.763L121.91 61.907L122.192 62.307L116.77 66.094L117.189 66.694L122.833 62.753L128.532 58.771L155.658 40.271L155.103 39.455L163.668 33.614L163.397 33.214L177.031 23.914L176.618 23.307L162.979 32.617Z" fill="url(#paint4_linear)"></path><path d="M164.09 35.807L164.085 35.8L155.102 41.925V41.931L129.254 59.556L129.801 60.356L124.062 64.356L124.338 64.756L118.618 68.763L119.039 69.363L124.758 65.357V65.364L130.486 61.364V61.371L156.42 43.687L155.864 42.872L164.764 36.805L164.493 36.405L176.993 27.882L176.579 27.275L164.09 35.807Z" fill="url(#paint5_linear)"></path><path d="M166.465 38.139L166.46 38.132L157.476 44.257L131.093 62.247L131.642 63.047L125.152 67.574L125.43 67.974L120.704 71.285L121.125 71.885L125.849 68.575L132.328 64.055L158.72 46.055L158.167 45.243L167.141 39.124L166.87 38.724L176.97 31.836L176.556 31.229L166.465 38.139Z" fill="url(#paint6_linear)"></path><path d="M167.255 41.546L167.25 41.539L159.687 46.696L159.693 46.705L133.015 64.813L133.576 65.64L125.898 71.006L126.179 71.406L122.993 73.632L123.414 74.232L126.643 71.976L135.491 65.792L161.17 48.362L160.614 47.543L167.94 42.543L167.669 42.143L176.957 35.809L176.543 35.202L167.255 41.546Z" fill="url(#paint7_linear)"></path><path d="M169.298 44.0951V44.0881L161.94 49.1051V49.1111L138.794 64.8941L139.339 65.6941L130.491 71.8781L130.772 72.2781L125.601 75.8921L126.022 76.4921L131.236 72.8481L140.03 66.7021L140.036 66.7111L163.322 50.8331L162.766 50.0181L169.984 45.0961L169.713 44.6961L176.936 39.7711L176.523 39.1641L169.298 44.0951Z" fill="url(#paint8_linear)"></path><path d="M172.862 45.905L172.724 45.705L166.871 49.696L144.471 64.971L145.027 65.786L137.266 71.21L137.547 71.61L128.677 77.81L129.098 78.41L138.01 72.181L146.24 66.429L168.115 51.513L167.564 50.704L173.416 46.713L173.072 46.208L173.283 46.508L176.916 43.94L176.492 43.34L172.862 45.905Z" fill="url(#paint9_linear)"></path><path d="M174.546 48.419L174.541 48.412L169.658 51.741L156.484 60.724L157.041 61.54L148.23 67.697L148.511 68.097L131.645 79.884L132.066 80.484L148.974 68.667L157.844 62.467V62.462L170.903 53.562L170.353 52.753L175.234 49.424L174.963 49.024L176.83 47.751L176.417 47.144L174.546 48.419Z" fill="url(#paint10_linear)"></path><path d="M175.99 51.5281L174.217 52.7361L174.147 52.6361L170.441 55.1631V55.1571L159.983 62.2891L160.539 63.1041L153.01 68.3661L153.291 68.7661L134.768 81.7101L135.189 82.3101L153.755 69.3361L161.722 63.7681L171.684 56.9751L171.136 56.175L174.842 53.6481L174.498 53.1481L176.271 51.9401L175.99 51.5281Z" fill="url(#paint11_linear)"></path><path d="M113.63 33.471L116.579 31.41L127.86 23.718L127.311 22.913L136.238 16.826L135.967 16.426L148.649 7.77704L148.235 7.17004L135.553 15.819L135.548 15.812L126.621 21.899L114.705 30.024L115.262 30.841L112.433 32.819L112.714 33.219L110.644 34.665L111.065 35.265L113.63 33.471Z" fill="url(#paint12_linear)"></path><path d="M113.902 37.257L118.408 34.108L132.353 24.6L131.804 23.794L140.591 17.802L140.32 17.402L153.52 8.31802L153.104 7.71301L139.904 16.796L139.899 16.789L131.112 22.781L116.312 32.874L116.87 33.693L112.61 36.671L112.891 37.071L110.621 38.657L111.042 39.257L113.902 37.257Z" fill="url(#paint13_linear)"></path><path d="M113.902 41.232L120.045 36.938L135.211 26.597L134.646 25.768L143.456 19.761L143.185 19.361L158.021 9.15103L157.605 8.54602L142.771 18.755V18.748L133.788 24.873L133.801 24.893L117.92 35.722L118.479 36.542L112.848 40.478L113.129 40.878L110.6 42.645L111.021 43.245L113.902 41.232Z" fill="url(#paint14_linear)"></path><path d="M113.225 45.682L121.954 39.582L138.069 28.594L137.515 27.781L146.482 21.667L146.211 21.267L162.474 10.303L162.063 9.69397L145.797 20.66L145.792 20.652L136.808 26.777L119.516 38.568L120.077 39.391L112.477 44.702L112.758 45.102L110.616 46.602L111.037 47.202L113.225 45.682Z" fill="url(#paint15_linear)"></path><path d="M116.419 47.4001L122.366 43.2441L140.927 30.5881L140.374 29.7761L149.328 23.6761L149.057 23.2761L165.968 11.7451L165.554 11.1381L148.643 22.6691V22.6621L139.659 28.7871L121.128 41.4231L121.679 42.2311L115.429 46.5991L115.712 46.9991L110.965 50.3071L111.385 50.9071L116.425 47.3951L116.419 47.4001Z" fill="url(#paint16_linear)"></path><path d="M116.92 51.035L124.588 45.676L143.788 32.586L143.234 31.774L151.898 25.866L151.627 25.466L169.913 12.996L169.499 12.389L151.213 24.859L151.208 24.852L142.225 30.977L122.73 44.27L123.286 45.086L116.176 50.055L116.457 50.455L111.617 53.837L112.037 54.437L116.92 51.025V51.035Z" fill="url(#paint17_linear)"></path><path d="M118.088 54.198L126.478 48.3351L149.135 32.9751L148.578 32.1541L157.404 26.1361L157.133 25.7361L173.412 14.6361L172.998 14.0291L156.718 25.1291L156.713 25.1221L147.729 31.2481L147.737 31.259L124.216 47.2051L124.775 48.0301L117.343 53.224L117.624 53.6241L112.544 57.172L112.965 57.772L118.087 54.194L118.088 54.198Z" fill="url(#paint18_linear)"></path><path d="M118.016 58.1951L126.53 52.2451L151.12 35.4771L150.573 34.6771L159.49 28.5981L159.219 28.1981L176.594 16.3491L176.179 15.7421L158.803 27.5911V27.5841L149.887 33.6641V33.6581L124.749 50.8001L125.304 51.6161L117.28 57.2251L117.561 57.6251L113.73 60.3011L114.151 60.9011L118.025 58.1951H118.016Z" fill="url(#paint19_linear)"></path><path d="M120.458 60.437L126.709 56.068L152.957 38.168L152.407 37.361L161.147 31.401L160.876 31.001L177.05 19.972L176.636 19.365L160.462 30.394L160.457 30.387L151.717 36.347L125.469 54.247L126.019 55.053L119.51 59.602L119.796 60.011L115.121 63.247L115.539 63.847L120.463 60.438L120.458 60.437Z" fill="url(#paint20_linear)"></path><path d="M174.151 58.1836L137.816 83.498L138.236 84.1007L174.57 58.7862L174.151 58.1836Z" fill="url(#paint21_linear)"></path><path d="M171.453 64.1141L140.869 85.448L141.29 86.0507L171.873 64.7168L171.453 64.1141Z" fill="url(#paint22_linear)"></path><path d="M165.136 72.5274L151.703 81.8979L152.124 82.5006L165.557 73.1301L165.136 72.5274Z" fill="url(#paint23_linear)"></path><path d="M52.7516 82.7348L62.231 61.7433H37.6091L24.6826 90.2449H41.1177C46.1652 90.2449 50.7203 87.2901 52.7516 82.7348Z" fill="#62B779"></path><path d="M48.1351 78.6104L58.1685 56.3877H33.5466L20.6201 84.8893H38.4094C42.6567 84.8893 46.4115 82.427 48.1351 78.6104Z" fill="#006CB6"></path><path d="M25.5443 51.4014L24.1901 54.3562H19.7582L18.2193 57.6804H32.3769L30.3456 62.1126H23.3899L21.851 65.4368H12.8641L11.3252 68.7609H28.0065L25.9752 73.1931H19.6966L18.3424 76.148H13.3565L11.8176 79.4721H35.3931C38.9633 79.4721 42.1641 77.3791 43.5799 74.1781L53.921 51.3398H25.5443V51.4014Z" fill="url(#paint24_linear)"></path><path d="M17.7886 55.9568H11.8178L11.0176 57.6189H17.0499L17.7886 55.9568Z" fill="url(#paint25_linear)"></path><path d="M15.5728 71.8389H11.3871L10.6484 73.501H14.7726L15.5728 71.8389Z" fill="url(#paint26_linear)"></path><path d="M15.8193 62.3589H20.0051L20.7437 60.6968H16.558L15.8193 62.3589Z" fill="url(#paint27_linear)"></path><path d="M11.3254 65.2521H6.03166L5.23145 66.9142H10.5867L11.3254 65.2521Z" fill="url(#paint28_linear)"></path><path d="M2.9541 78.6718H10.5869L11.3255 77.0098H3.69276L2.9541 78.6718Z" fill="url(#paint29_linear)"></path><path d="M2.76953 86.6129H15.0189L15.8191 84.9508H3.56974L2.76953 86.6129Z" fill="url(#paint30_linear)"></path><path d="M4.67782 26.8395V30.9024H9.97153V32.6876H4.67782V38.2894H2.58496V25.0543H10.8333V26.8395H4.67782Z" fill="white"></path><path d="M13.2339 30.2252L12.8646 28.9325C16.0654 27.5782 20.0665 27.5782 20.0665 31.5795V38.1663H18.0967V36.9351C17.1118 37.9201 16.0654 38.351 14.8959 38.351C13.2339 38.351 12.249 37.2429 12.249 35.7655C12.249 33.611 14.465 32.0104 18.0967 32.1951V31.6411C18.1583 29.0556 15.6345 29.3019 13.2339 30.2252ZM14.0957 35.5193C14.0957 36.3811 14.7728 36.812 15.6961 36.812C16.7425 36.812 17.4812 36.3811 18.1583 35.7655V33.3647C15.5114 33.0569 14.0957 34.4112 14.0957 35.5193Z" fill="white"></path><path d="M24.5603 35.827C24.5603 36.6273 24.9911 36.9351 25.6067 36.9351C25.9145 36.9351 26.4069 36.8735 26.53 36.812V38.2278C26.0991 38.3509 25.2374 38.4125 24.868 38.4125C23.2061 38.4125 22.5905 37.5507 22.5905 36.0117V30.1636H21.2979L21.6056 28.6862H22.5905V26.2854L24.5603 25.793V28.6862H26.6531L26.3453 30.1636H24.5603V35.827Z" fill="white"></path><path d="M27.7607 33.3032C27.7607 30.4099 29.1765 28.2554 32.1927 28.2554C35.2089 28.2554 36.6246 30.4099 36.6246 33.3032C36.6246 36.1964 35.2089 38.351 32.1927 38.351C29.1765 38.351 27.7607 36.1964 27.7607 33.3032ZM29.5458 33.3032C29.5458 35.2731 30.346 36.9351 32.1311 36.9351C33.9778 36.9351 34.7164 35.2731 34.7164 33.3032C34.7164 31.3333 33.9778 29.6712 32.1311 29.6712C30.346 29.6712 29.5458 31.2717 29.5458 33.3032Z" fill="white"></path><path d="M37.917 33.3032C37.917 30.4099 39.3328 28.2554 42.3489 28.2554C45.3651 28.2554 46.7809 30.4099 46.7809 33.3032C46.7809 36.1964 45.3651 38.351 42.3489 38.351C39.3328 38.351 37.917 36.1964 37.917 33.3032ZM39.7636 33.3032C39.7636 35.2731 40.5638 36.9351 42.3489 36.9351C44.1956 36.9351 44.9342 35.2731 44.9342 33.3032C44.9342 31.3333 44.1956 29.6712 42.3489 29.6712C40.5638 29.6712 39.7636 31.2717 39.7636 33.3032Z" fill="white"></path><path d="M48.6895 38.1663V28.5016H50.6592V30.2868C51.521 28.9941 52.8136 28.4401 54.1063 28.4401V29.979C52.7521 29.8559 51.0901 30.9024 50.6592 31.7642V38.1663H48.6895Z" fill="white"></path><path d="M55.645 30.2252L55.3372 28.9325C58.5381 27.5782 62.5391 27.5782 62.5391 31.5795V38.1663H60.5694V36.9351C59.5845 37.9201 58.5381 38.351 57.3685 38.351C55.7066 38.351 54.7217 37.2429 54.7217 35.7655C54.7217 33.611 56.9376 32.0104 60.5694 32.1951V31.6411C60.5694 29.0556 58.0456 29.3019 55.645 30.2252ZM56.5068 35.5193C56.5068 36.3811 57.1839 36.812 58.1072 36.812C59.1536 36.812 59.8923 36.3811 60.5694 35.7655V33.3647C57.9225 33.0569 56.5068 34.4112 56.5068 35.5193Z" fill="white"></path><path d="M8.86388 4.43217C9.47942 4.43217 9.97186 3.93971 9.97186 3.32412C9.97186 2.70853 9.47942 2.21606 8.86388 2.21606C8.24833 2.21606 7.69434 2.70853 7.69434 3.32412C7.75589 3.93971 8.24833 4.43217 8.86388 4.43217Z" fill="white"></path><path d="M7.0168 5.84802H6.70903C4.55462 5.84802 2.76953 7.57166 2.76953 9.78777V11.6345C2.76953 13.7891 4.49306 15.5743 6.70903 15.5743H7.20147C9.23277 15.5743 10.8948 13.9122 10.8948 11.8808V9.84933C10.8948 7.63322 9.17122 5.84802 7.0168 5.84802ZM9.04811 11.8808C9.04811 12.8657 8.2479 13.666 7.26302 13.666H6.64748C5.47794 13.666 4.55462 12.7426 4.55462 11.573V9.72622C4.55462 8.5566 5.47794 7.63322 6.64748 7.63322H6.95525C8.12479 7.63322 9.04811 8.49504 9.04811 9.72622V11.8808Z" fill="white"></path><path d="M5.47813 4.43217C6.09368 4.43217 6.58612 3.93971 6.58612 3.32412C6.58612 2.70853 6.09368 2.21606 5.47813 2.21606C4.86259 2.21606 4.30859 2.70853 4.30859 3.32412C4.37015 3.93971 4.86259 4.43217 5.47813 4.43217Z" fill="white"></path><path d="M14.65 15.8206C14.65 17.0517 13.7882 17.9751 12.4956 17.9751H11.5723V19.8219H12.4956C14.7731 19.8219 16.4351 18.0982 16.4351 15.8821V6.4021H14.5884V15.8206H14.65Z" fill="white"></path><path d="M31.2076 5.17086C31.8232 5.17086 32.3156 4.67839 32.3156 4.00124C32.3156 3.38566 31.8232 2.89319 31.2076 2.89319C30.5921 2.89319 30.0381 3.38566 30.0381 4.00124C30.0381 4.67839 30.5305 5.17086 31.2076 5.17086Z" fill="white"></path><path d="M34.5934 2.89319C33.9778 2.89319 33.4238 3.38566 33.4238 4.00124C33.4238 4.61683 33.9778 5.17086 34.5934 5.17086C35.2089 5.17086 35.7014 4.67839 35.7014 4.00124C35.7014 3.44722 35.2089 2.89319 34.5934 2.89319Z" fill="white"></path><path d="M32.5617 12.8041C32.5617 13.4197 32.1308 13.6659 31.6999 13.6659H29.3608H27.7604H26.9602V9.91086C26.9602 7.63319 25.2367 5.90955 22.9592 5.90955H22.7745C20.497 5.90955 18.7734 7.63319 18.7734 9.91086V11.5114C18.7734 13.7275 20.497 15.5127 22.6514 15.5127H25.1751V15.9436C25.1751 17.6672 23.944 18.4059 20.2508 17.8519V19.5756C24.6827 20.4374 26.9602 19.0215 26.9602 16.3745V15.5127H27.7604H29.3608H32.2539C33.4235 15.5127 34.3468 14.5893 34.3468 13.4197V6.52513H32.5001V12.8041H32.5617ZM25.1751 13.6659H22.7129C21.605 13.6659 20.6816 12.681 20.6816 11.5114V9.91086C20.6816 8.61813 21.5434 7.7563 22.836 7.7563H23.0207C24.3134 7.7563 25.1751 8.61813 25.1751 9.91086V13.6659Z" fill="white"></path><path d="M58.538 5.9096H58.3534C56.0758 5.9096 54.3523 7.63324 54.3523 9.91091V11.5114C54.3523 12.3733 54.7216 13.1735 55.2756 13.7275H53.3674H53.1828H50.0435H49.6742H46.7195H46.3502H43.3956H43.0263H41.3643H40.9949H40.1947C39.7639 13.7275 39.333 13.4198 39.333 12.8657V2.40076H37.4863V13.4813C37.4863 14.6509 38.4096 15.5743 39.6407 15.5743H40.9949H41.3643H43.0263H43.3956H46.3502H46.7195H49.6742H50.0435H53.3674H58.7843C60.8771 15.5743 62.5391 13.9122 62.5391 11.8192V9.97247C62.5391 7.63324 60.754 5.9096 58.538 5.9096ZM60.6924 11.573C60.6924 12.7426 59.7691 13.666 58.5996 13.666H58.2303C57.1223 13.666 56.1374 12.681 56.1374 11.4499V9.84935C56.1374 8.61818 57.0607 7.6948 58.2918 7.6948H58.4765C59.7076 7.6948 60.6309 8.61818 60.6309 9.84935V11.573H60.6924Z" fill="white"></path><path d="M58.4154 4.24752C59.0309 4.24752 59.5849 3.75505 59.5849 3.0779C59.5849 2.46232 59.0925 1.96985 58.4154 1.96985C57.7999 1.96985 57.2459 2.52388 57.3074 3.13946C57.369 3.75505 57.8614 4.18596 58.4154 4.24752Z" fill="white"></path></g><defs><linearGradient id="paint0_linear" x1="130.04" y1="-16.5806" x2="165.421" y2="35.3607" gradientUnits="userSpaceOnUse"><stop stop-color="#62B34F"></stop><stop offset="0.456" stop-color="#51BAB4"></stop><stop offset="1" stop-color="#0094D3"></stop></linearGradient><linearGradient id="paint1_linear" x1="126.933" y1="-19.0002" x2="162.317" y2="32.986" gradientUnits="userSpaceOnUse"><stop stop-color="#62B34F"></stop><stop offset="0.456" stop-color="#51BAB4"></stop><stop offset="1" stop-color="#0094D3"></stop></linearGradient><linearGradient id="paint2_linear" x1="123.125" y1="-21.7631" x2="158.583" y2="30.1175" gradientUnits="userSpaceOnUse"><stop stop-color="#62B34F"></stop><stop offset="0.456" stop-color="#51BAB4"></stop><stop offset="1" stop-color="#0094D3"></stop></linearGradient><linearGradient id="paint3_linear" x1="118.022" y1="-25.1537" x2="153.588" y2="26.9348" gradientUnits="userSpaceOnUse"><stop stop-color="#62B34F"></stop><stop offset="0.456" stop-color="#51BAB4"></stop><stop offset="1" stop-color="#0094D3"></stop></linearGradient><linearGradient id="paint4_linear" x1="174.199" y1="11.8528" x2="143.563" y2="83.6653" gradientUnits="userSpaceOnUse"><stop stop-color="#62B34F"></stop><stop offset="0.456" stop-color="#51BAB4"></stop><stop offset="1" stop-color="#0094D3"></stop></linearGradient><linearGradient id="paint5_linear" x1="176.351" y1="13.6385" x2="145.622" y2="85.4574" gradientUnits="userSpaceOnUse"><stop stop-color="#62B34F"></stop><stop offset="0.456" stop-color="#51BAB4"></stop><stop offset="1" stop-color="#0094D3"></stop></linearGradient><linearGradient id="paint6_linear" x1="178.546" y1="15.4545" x2="147.699" y2="87.2695" gradientUnits="userSpaceOnUse"><stop stop-color="#62B34F"></stop><stop offset="0.456" stop-color="#51BAB4"></stop><stop offset="1" stop-color="#0094D3"></stop></linearGradient><linearGradient id="paint7_linear" x1="180.789" y1="17.2873" x2="149.893" y2="89.0778" gradientUnits="userSpaceOnUse"><stop stop-color="#62B34F"></stop><stop offset="0.456" stop-color="#51BAB4"></stop><stop offset="1" stop-color="#0094D3"></stop></linearGradient><linearGradient id="paint8_linear" x1="183.096" y1="19.1936" x2="151.848" y2="90.9436" gradientUnits="userSpaceOnUse"><stop stop-color="#62B34F"></stop><stop offset="0.456" stop-color="#51BAB4"></stop><stop offset="1" stop-color="#0094D3"></stop></linearGradient><linearGradient id="paint9_linear" x1="185.454" y1="21.1757" x2="154.276" y2="92.8922" gradientUnits="userSpaceOnUse"><stop stop-color="#62B34F"></stop><stop offset="0.456" stop-color="#51BAB4"></stop><stop offset="1" stop-color="#0094D3"></stop></linearGradient><linearGradient id="paint10_linear" x1="187.765" y1="23.0726" x2="155.686" y2="94.6726" gradientUnits="userSpaceOnUse"><stop stop-color="#62B34F"></stop><stop offset="0.456" stop-color="#51BAB4"></stop><stop offset="1" stop-color="#0094D3"></stop></linearGradient><linearGradient id="paint11_linear" x1="190.008" y1="24.9017" x2="157.603" y2="96.47" gradientUnits="userSpaceOnUse"><stop stop-color="#62B34F"></stop><stop offset="0.456" stop-color="#51BAB4"></stop><stop offset="1" stop-color="#0094D3"></stop></linearGradient><linearGradient id="paint12_linear" x1="152.221" y1="-6.20318" x2="120.005" y2="65.3952" gradientUnits="userSpaceOnUse"><stop stop-color="#62B34F"></stop><stop offset="0.456" stop-color="#51BAB4"></stop><stop offset="1" stop-color="#0094D3"></stop></linearGradient><linearGradient id="paint13_linear" x1="154.764" y1="-4.11599" x2="122.893" y2="67.5366" gradientUnits="userSpaceOnUse"><stop stop-color="#62B34F"></stop><stop offset="0.456" stop-color="#51BAB4"></stop><stop offset="1" stop-color="#0094D3"></stop></linearGradient><linearGradient id="paint14_linear" x1="157.309" y1="-2.03717" x2="125.698" y2="69.6741" gradientUnits="userSpaceOnUse"><stop stop-color="#62B34F"></stop><stop offset="0.456" stop-color="#51BAB4"></stop><stop offset="1" stop-color="#0094D3"></stop></linearGradient><linearGradient id="paint15_linear" x1="159.881" y1="0.0919236" x2="128.979" y2="71.8724" gradientUnits="userSpaceOnUse"><stop stop-color="#62B34F"></stop><stop offset="0.456" stop-color="#51BAB4"></stop><stop offset="1" stop-color="#0094D3"></stop></linearGradient><linearGradient id="paint16_linear" x1="162.283" y1="2.07073" x2="131.401" y2="73.8621" gradientUnits="userSpaceOnUse"><stop stop-color="#62B34F"></stop><stop offset="0.456" stop-color="#51BAB4"></stop><stop offset="1" stop-color="#0094D3"></stop></linearGradient><linearGradient id="paint17_linear" x1="164.841" y1="4.18968" x2="134.096" y2="75.9864" gradientUnits="userSpaceOnUse"><stop stop-color="#62B34F"></stop><stop offset="0.456" stop-color="#51BAB4"></stop><stop offset="1" stop-color="#0094D3"></stop></linearGradient><linearGradient id="paint18_linear" x1="167.386" y1="6.28654" x2="136.832" y2="78.1128" gradientUnits="userSpaceOnUse"><stop stop-color="#62B34F"></stop><stop offset="0.456" stop-color="#51BAB4"></stop><stop offset="1" stop-color="#0094D3"></stop></linearGradient><linearGradient id="paint19_linear" x1="169.867" y1="8.33599" x2="139.337" y2="80.1656" gradientUnits="userSpaceOnUse"><stop stop-color="#62B34F"></stop><stop offset="0.456" stop-color="#51BAB4"></stop><stop offset="1" stop-color="#0094D3"></stop></linearGradient><linearGradient id="paint20_linear" x1="172.034" y1="10.0683" x2="141.534" y2="81.9244" gradientUnits="userSpaceOnUse"><stop stop-color="#62B34F"></stop><stop offset="0.456" stop-color="#51BAB4"></stop><stop offset="1" stop-color="#0094D3"></stop></linearGradient><linearGradient id="paint21_linear" x1="160.759" y1="14.0961" x2="196.688" y2="65.6903" gradientUnits="userSpaceOnUse"><stop stop-color="#62B34F"></stop><stop offset="0.456" stop-color="#51BAB4"></stop><stop offset="1" stop-color="#0094D3"></stop></linearGradient><linearGradient id="paint22_linear" x1="161.122" y1="15.1519" x2="197.07" y2="66.721" gradientUnits="userSpaceOnUse"><stop stop-color="#62B34F"></stop><stop offset="0.456" stop-color="#51BAB4"></stop><stop offset="1" stop-color="#0094D3"></stop></linearGradient><linearGradient id="paint23_linear" x1="163.421" y1="17.1348" x2="199.341" y2="68.8104" gradientUnits="userSpaceOnUse"><stop stop-color="#62B34F"></stop><stop offset="0.456" stop-color="#51BAB4"></stop><stop offset="1" stop-color="#0094D3"></stop></linearGradient><linearGradient id="paint24_linear" x1="-5.37712" y1="81.9363" x2="75.0863" y2="45.9152" gradientUnits="userSpaceOnUse"><stop offset="0.1" stop-color="#62B55F"></stop><stop offset="0.5" stop-color="#52BAB2"></stop><stop offset="0.788" stop-color="#1592D0"></stop><stop offset="1" stop-color="#2454A0"></stop></linearGradient><linearGradient id="paint25_linear" x1="-23.4198" y1="73.7645" x2="96.6525" y2="20.0118" gradientUnits="userSpaceOnUse"><stop offset="0.1" stop-color="#62B55F"></stop><stop offset="0.5" stop-color="#52BAB2"></stop><stop offset="0.788" stop-color="#1592D0"></stop><stop offset="1" stop-color="#2454A0"></stop></linearGradient><linearGradient id="paint26_linear" x1="-7.6772" y1="81.9401" x2="82.9048" y2="41.3893" gradientUnits="userSpaceOnUse"><stop offset="0.1" stop-color="#62B55F"></stop><stop offset="0.5" stop-color="#52BAB2"></stop><stop offset="0.788" stop-color="#1592D0"></stop><stop offset="1" stop-color="#2454A0"></stop></linearGradient><linearGradient id="paint27_linear" x1="-10.9554" y1="74.6165" x2="79.6265" y2="34.0656" gradientUnits="userSpaceOnUse"><stop offset="0.1" stop-color="#62B55F"></stop><stop offset="0.5" stop-color="#52BAB2"></stop><stop offset="0.788" stop-color="#1592D0"></stop><stop offset="1" stop-color="#2454A0"></stop></linearGradient><linearGradient id="paint28_linear" x1="-10.9135" y1="74.7112" x2="79.6684" y2="34.1603" gradientUnits="userSpaceOnUse"><stop offset="0.1" stop-color="#62B55F"></stop><stop offset="0.5" stop-color="#52BAB2"></stop><stop offset="0.788" stop-color="#1592D0"></stop><stop offset="1" stop-color="#2454A0"></stop></linearGradient><linearGradient id="paint29_linear" x1="-6.72716" y1="84.0622" x2="83.8547" y2="43.5112" gradientUnits="userSpaceOnUse"><stop offset="0.1" stop-color="#62B55F"></stop><stop offset="0.5" stop-color="#52BAB2"></stop><stop offset="0.788" stop-color="#1592D0"></stop><stop offset="1" stop-color="#2454A0"></stop></linearGradient><linearGradient id="paint30_linear" x1="-11.5787" y1="95.1515" x2="124.775" y2="34.1097" gradientUnits="userSpaceOnUse"><stop offset="0.1" stop-color="#62B55F"></stop><stop offset="0.5" stop-color="#52BAB2"></stop><stop offset="0.788" stop-color="#1592D0"></stop><stop offset="1" stop-color="#2454A0"></stop></linearGradient><clipPath id="clip0"><rect width="175" height="94" fill="white"></rect></clipPath></defs></svg>